<?xml version="1.0" encoding="UTF-8" standalone="no"?>
<!-- Created with Inkscape (http://www.inkscape.org/) -->

<svg
   xmlns:dc="http://purl.org/dc/elements/1.1/"
   xmlns:cc="http://creativecommons.org/ns#"
   xmlns:rdf="http://www.w3.org/1999/02/22-rdf-syntax-ns#"
   xmlns:svg="http://www.w3.org/2000/svg"
   xmlns="http://www.w3.org/2000/svg"
   xmlns:sodipodi="http://sodipodi.sourceforge.net/DTD/sodipodi-0.dtd"
   xmlns:inkscape="http://www.inkscape.org/namespaces/inkscape"
   width="390mm"
   height="175mm"
   viewBox="0 0 1381.8897 620.07873"
   id="svg2"
   version="1.1"
   inkscape:version="0.91 r"
   sodipodi:docname="top2.svg">
  <defs
     id="defs4">
		
		
		
		
		
		
		
		
		
		
		
		
		
		
		
		
		
		
		
		
		
		
		
		
		
		
	</defs>
  <sodipodi:namedview
     id="base"
     pagecolor="#ffffff"
     bordercolor="#666666"
     borderopacity="1.0"
     inkscape:pageopacity="0.0"
     inkscape:pageshadow="2"
     inkscape:zoom="0.49497475"
     inkscape:cx="683.19343"
     inkscape:cy="523.14378"
     inkscape:document-units="cm"
     inkscape:current-layer="layer1"
     showgrid="false"
     inkscape:window-width="1918"
     inkscape:window-height="1030"
     inkscape:window-x="0"
     inkscape:window-y="0"
     inkscape:window-maximized="0"
     showguides="true"
     inkscape:guide-bbox="true">
    <sodipodi:guide
       position="836.40631,-171.72594"
       orientation="0,1"
       id="guide3965" />
  </sodipodi:namedview>
  <metadata
     id="metadata7">
    <rdf:RDF>
      <cc:Work
         rdf:about="">
        <dc:format>image/svg+xml</dc:format>
        <dc:type
           rdf:resource="http://purl.org/dc/dcmitype/StillImage" />
        <dc:title></dc:title>
      </cc:Work>
    </rdf:RDF>
  </metadata>
  <g
     inkscape:label="Layer 1"
     inkscape:groupmode="layer"
     id="layer1"
     transform="translate(0,-432.28347)">
    <path
       style="fill:none;fill-rule:evenodd;stroke:#0000ff;stroke-width:6;stroke-linecap:butt;stroke-linejoin:miter;stroke-opacity:1"
       d="m 217.26529,461.79375 0,180.45703 -21.44531,-36.16406 -140.01953,0 -18.626953,35.72265 0,216.26758 18.503906,36.36524 139.960937,0 21.44336,-36.52735 0.18359,181.04496 289.05079,0 -0.18164,-181.2266 17.70312,36.70899 144.58203,0.18164 17.81836,-36.48243 0.0547,-215.98242 -17.98047,-35.98047 -144.00586,-0.0918 -18.11914,36.36523 0.12891,-180.6582 -289.05079,0 z M 429.9899,666.90312 c 6.28067,-0.14927 12.42632,3.06526 15.78125,8.91992 l 23.10352,40.32032 c 4.8799,8.51587 1.95337,19.29979 -6.5625,24.17968 l -158.05273,90.57032 c -8.51588,4.8799 -19.29979,1.95141 -24.17969,-6.56446 l -23.10547,-40.32031 c -4.8799,-8.51587 -1.95337,-19.29979 6.5625,-24.17969 l 158.05469,-90.57031 c 2.66121,-1.52497 5.54358,-2.28762 8.39843,-2.35547 z m -69.55273,219.41992 c 1.44206,0.0662 2.63539,0.76559 3.30859,2.02344 0.42208,0.78871 3.3343,20.57514 6.47071,43.97071 3.1364,23.39557 5.83317,42.40895 5.99218,42.25 0.15902,-0.15904 2.70266,-15.58714 5.65235,-34.28321 3.68964,-23.38619 5.73177,-34.36264 6.54687,-35.17773 1.506,-1.50602 5.0564,-1.5279 6.54297,-0.041 0.62827,0.62823 4.32908,12.44665 8.22461,26.26367 3.89552,13.81708 7.27488,25.65354 7.50977,26.30274 0.28195,0.77932 1.10466,-0.15624 2.41992,-2.75391 3.49052,-6.89374 3.0221,-6.68945 15.31054,-6.68945 l 10.89454,0 0,4.7207 0,4.72266 -8.48828,0 -8.48829,0 -4.29882,8.75586 c -2.3648,4.81559 -5.0786,9.27178 -6.03125,9.90234 -2.10847,1.3956 -4.61328,0.73308 -6.05664,-1.60156 -0.58178,-0.94106 -3.64531,-11.00536 -6.80665,-22.36328 -3.16133,-11.35798 -5.85751,-20.53896 -5.99218,-20.4043 -0.13467,0.13466 -3.07899,18.28049 -6.54297,40.32422 -5.59348,35.59546 -6.486,40.23386 -7.96875,41.45696 -2.20425,1.8182 -3.37533,1.7362 -5.69531,-0.3945 -1.84251,-1.6923 -2.18015,-3.6686 -7.61133,-44.65816 -3.12553,-23.58859 -5.78488,-43.00338 -5.91016,-43.14258 -0.35291,-0.39196 -0.80046,2.15181 -5.94531,33.69922 -2.64695,16.23074 -5.20897,29.99264 -5.69336,30.58203 -2.14288,2.60755 -6.91681,2.30277 -7.99609,-0.50977 -0.2514,-0.65518 -1.57108,-10.96594 -2.9336,-22.91211 -1.36253,-11.94618 -2.69637,-21.98065 -2.96289,-22.30078 -0.26654,-0.32013 -2.57412,5.50082 -5.1289,12.9375 -2.5548,7.43674 -5.28597,14.16296 -6.06836,14.94531 -1.80524,1.80525 -4.7574,1.82611 -6.32422,0.0449 -0.66633,-0.75742 -2.37195,-5.18504 -3.78907,-9.83789 -1.41712,-4.65279 -2.78507,-8.44442 -3.04101,-8.42774 -0.25594,0.0164 -1.18068,1.16664 -2.05469,2.55664 l -1.58789,2.52735 -12.77344,0.21679 -12.77343,0.21485 0,-4.7168 0,-4.7168 9.93945,-0.2207 9.93945,-0.2207 2.86328,-7.85547 c 2.41105,-6.61599 3.19624,-7.97213 4.98047,-8.59961 4.17775,-1.46919 5.55337,0.0821 8.41211,9.48437 1.42902,4.7 2.86125,8.8277 3.18164,9.17383 0.32038,0.34613 3.16719,-6.91386 6.32617,-16.13281 3.15898,-9.21888 6.27564,-17.38126 6.92774,-18.13867 1.24712,-1.44854 4.54892,-1.8095 6.3125,-0.69141 1.4122,0.89541 2.12275,4.58557 3.73047,19.38281 0.7524,6.9251 1.59612,12.85326 1.875,13.17578 0.27888,0.32258 2.55525,-12.07172 5.05859,-27.54296 5.48808,-33.91776 5.47672,-33.87143 8.11133,-34.87305 0.61989,-0.23569 1.22456,-0.37357 1.79883,-0.41797 0.21535,-0.0167 0.4268,-0.0192 0.63281,-0.01 z"
       id="path3374"
       inkscape:connector-curvature="0" />
    <path
       style="fill:none;fill-rule:evenodd;stroke:#0000ff;stroke-width:6;stroke-linecap:butt;stroke-linejoin:miter;stroke-opacity:1"
       d="m 506.31554,687.50113 0,35.98014"
       id="path3378-4"
       inkscape:connector-curvature="0" />
    <path
       style="fill:none;fill-rule:evenodd;stroke:#0000ff;stroke-width:6;stroke-linecap:butt;stroke-linejoin:miter;stroke-opacity:1"
       d="m 506.31554,772.98558 0,35.98014"
       id="path3378-4-5"
       inkscape:connector-curvature="0" />
    <path
       style="fill:none;fill-rule:evenodd;stroke:#0000ff;stroke-width:6;stroke-linecap:butt;stroke-linejoin:miter;stroke-opacity:1"
       d="m 217.26468,687.50113 0,35.98014"
       id="path3376-0"
       inkscape:connector-curvature="0" />
    <path
       style="fill:none;fill-rule:evenodd;stroke:#0000ff;stroke-width:6;stroke-linecap:butt;stroke-linejoin:miter;stroke-opacity:1"
       d="m 217.26468,770.95023 0,35.98014"
       id="path3376-0-0"
       inkscape:connector-curvature="0" />
    <path
       style="fill:#008000;fill-rule:evenodd;stroke:#0000ff;stroke-width:6;stroke-linecap:butt;stroke-linejoin:miter;stroke-opacity:1"
       d="m 262.04225,858.67526 36.5272,0"
       id="path3444"
       inkscape:connector-curvature="0" />
    <path
       style="fill:#008000;fill-rule:evenodd;stroke:#0000ff;stroke-width:6;stroke-linecap:butt;stroke-linejoin:miter;stroke-opacity:1"
       d="m 347.52669,858.67526 36.5272,0"
       id="path3444-5"
       inkscape:connector-curvature="0" />
    <path
       style="fill:#008000;fill-rule:evenodd;stroke:#0000ff;stroke-width:6;stroke-linecap:butt;stroke-linejoin:miter;stroke-opacity:1"
       d="m 428.94045,858.67526 36.5272,0"
       id="path3444-5-2"
       inkscape:connector-curvature="0" />
    <path
       style="fill:#008000;fill-rule:evenodd;stroke:#0000ff;stroke-width:6;stroke-linecap:butt;stroke-linejoin:miter;stroke-opacity:1"
       d="m 262.04225,642.20188 36.5272,0"
       id="path3444-4"
       inkscape:connector-curvature="0" />
    <path
       style="fill:#008000;fill-rule:evenodd;stroke:#0000ff;stroke-width:6;stroke-linecap:butt;stroke-linejoin:miter;stroke-opacity:1"
       d="m 347.52669,642.20188 36.5272,0"
       id="path3444-5-5"
       inkscape:connector-curvature="0" />
    <path
       style="fill:#008000;fill-rule:evenodd;stroke:#0000ff;stroke-width:6;stroke-linecap:butt;stroke-linejoin:miter;stroke-opacity:1"
       d="m 428.94045,642.20188 36.5272,0"
       id="path3444-5-2-4"
       inkscape:connector-curvature="0" />
    <path
       style="fill:#008000;fill-rule:evenodd;stroke:#0000ff;stroke-width:6;stroke-linecap:butt;stroke-linejoin:miter;stroke-opacity:1"
       d="m 540.88437,642.20188 36.5272,0"
       id="path3444-5-5-5"
       inkscape:connector-curvature="0" />
    <path
       style="fill:#008000;fill-rule:evenodd;stroke:#0000ff;stroke-width:6;stroke-linecap:butt;stroke-linejoin:miter;stroke-opacity:1"
       d="m 610.08607,642.20188 36.5272,0"
       id="path3444-5-2-4-1"
       inkscape:connector-curvature="0" />
    <path
       style="fill:#008000;fill-rule:evenodd;stroke:#0000ff;stroke-width:6;stroke-linecap:butt;stroke-linejoin:miter;stroke-opacity:1"
       d="m 538.80005,858.21636 36.5272,0"
       id="path3444-5-5-5-4"
       inkscape:connector-curvature="0" />
    <path
       style="fill:#008000;fill-rule:evenodd;stroke:#0000ff;stroke-width:6;stroke-linecap:butt;stroke-linejoin:miter;stroke-opacity:1"
       d="m 608.00175,858.21636 36.5272,0"
       id="path3444-5-2-4-1-7"
       inkscape:connector-curvature="0" />
    <path
       style="fill:#008000;fill-rule:evenodd;stroke:#0000ff;stroke-width:6;stroke-linecap:butt;stroke-linejoin:miter;stroke-opacity:1"
       d="m 74.80871,858.68626 36.5272,0"
       id="path3444-5-5-5-7"
       inkscape:connector-curvature="0" />
    <path
       style="fill:#008000;fill-rule:evenodd;stroke:#0000ff;stroke-width:6;stroke-linecap:butt;stroke-linejoin:miter;stroke-opacity:1"
       d="m 144.01041,858.68626 36.5272,0"
       id="path3444-5-2-4-1-9"
       inkscape:connector-curvature="0" />
    <path
       style="fill:#008000;fill-rule:evenodd;stroke:#0000ff;stroke-width:6;stroke-linecap:butt;stroke-linejoin:miter;stroke-opacity:1"
       d="m 76.173611,642.58151 36.527199,0"
       id="path3444-5-5-5-3"
       inkscape:connector-curvature="0" />
    <path
       style="fill:#008000;fill-rule:evenodd;stroke:#0000ff;stroke-width:6;stroke-linecap:butt;stroke-linejoin:miter;stroke-opacity:1"
       d="m 145.37531,642.58151 36.5272,0"
       id="path3444-5-2-4-1-0"
       inkscape:connector-curvature="0" />
    <g
       id="g3722"
       transform="translate(224.79372,1062.0313)">
</g>
    <g
       id="g3724"
       transform="translate(224.79372,1062.0313)">
</g>
    <g
       id="g3726"
       transform="translate(224.79372,1062.0313)">
</g>
    <g
       id="g3728"
       transform="translate(224.79372,1062.0313)">
</g>
    <g
       id="g3730"
       transform="translate(224.79372,1062.0313)">
</g>
    <g
       id="g3732"
       transform="translate(224.79372,1062.0313)">
</g>
    <g
       id="g3734"
       transform="translate(224.79372,1062.0313)">
</g>
    <g
       id="g3736"
       transform="translate(224.79372,1062.0313)">
</g>
    <g
       id="g3738"
       transform="translate(224.79372,1062.0313)">
</g>
    <g
       id="g3740"
       transform="translate(224.79372,1062.0313)">
</g>
    <g
       id="g3742"
       transform="translate(224.79372,1062.0313)">
</g>
    <g
       id="g3744"
       transform="translate(224.79372,1062.0313)">
</g>
    <g
       id="g3746"
       transform="translate(224.79372,1062.0313)">
</g>
    <g
       id="g3748"
       transform="translate(224.79372,1062.0313)">
</g>
    <g
       id="g3750"
       transform="translate(224.79372,1062.0313)">
</g>
    <path
       style="fill:#0000ff;fill-rule:evenodd;stroke:#ffffff;stroke-width:6;stroke-linecap:butt;stroke-linejoin:miter;stroke-opacity:1"
       d="m 716.30316,849.99484 17.66992,35.35547 141.50391,0.0898 17.80469,-35.73437 -0.12695,177.52146 284.03127,0 0,-177.32224 21.0722,35.53515 137.5898,0 18.3028,-35.10351 0,-212.5098 -18.1817,-35.7343 -137.5331,0 -21.0703,35.8925 -0.1797,-177.9003 -284.03127,0 0.17968,178.0781 -17.39843,-36.0703 -142.07032,-0.1797 -17.50977,35.8496 -0.0527,212.2324 z M 997.00824,746.51242 a 39.285713,39.285713 0 0 1 39.28516,-39.28512 39.285713,39.285713 0 0 1 39.2852,39.28512 39.285713,39.285713 0 0 1 -39.2852,39.28711 39.285713,39.285713 0 0 1 -39.28516,-39.28711 z"
       id="path3374-7"
       inkscape:connector-curvature="0" />
    <path
       style="fill:#0000ff;fill-rule:evenodd;stroke:#ffffff;stroke-width:6;stroke-linecap:butt;stroke-linejoin:miter;stroke-opacity:1"
       d="m 893.15515,805.4398 0,-35.35534"
       id="path3378-4-0"
       inkscape:connector-curvature="0" />
    <path
       style="fill:#0000ff;fill-rule:evenodd;stroke:#ffffff;stroke-width:6;stroke-linecap:butt;stroke-linejoin:miter;stroke-opacity:1"
       d="m 893.15515,721.4398 0,-35.3553"
       id="path3378-4-5-1"
       inkscape:connector-curvature="0" />
    <path
       style="fill:#0000ff;fill-rule:evenodd;stroke:#ffffff;stroke-width:6;stroke-linecap:butt;stroke-linejoin:miter;stroke-opacity:1"
       d="m 1177.1866,805.4398 0,-35.35534"
       id="path3376-0-3"
       inkscape:connector-curvature="0" />
    <path
       style="fill:#0000ff;fill-rule:evenodd;stroke:#ffffff;stroke-width:6;stroke-linecap:butt;stroke-linejoin:miter;stroke-opacity:1"
       d="m 1177.1866,723.4398 0,-35.3553"
       id="path3376-0-0-8"
       inkscape:connector-curvature="0" />
    <path
       style="fill:#0000ff;fill-rule:evenodd;stroke:#ffffff;stroke-width:6;stroke-linecap:butt;stroke-linejoin:miter;stroke-opacity:1"
       d="m 1133.1866,637.2381 -35.8929,0"
       id="path3444-7"
       inkscape:connector-curvature="0" />
    <path
       style="fill:#0000ff;fill-rule:evenodd;stroke:#ffffff;stroke-width:6;stroke-linecap:butt;stroke-linejoin:miter;stroke-opacity:1"
       d="m 1049.1866,637.2381 -35.8929,0"
       id="path3444-5-7"
       inkscape:connector-curvature="0" />
    <path
       style="fill:#0000ff;fill-rule:evenodd;stroke:#ffffff;stroke-width:6;stroke-linecap:butt;stroke-linejoin:miter;stroke-opacity:1"
       d="m 969.18661,637.2381 -35.8929,0"
       id="path3444-5-2-2"
       inkscape:connector-curvature="0" />
    <path
       style="fill:#0000ff;fill-rule:evenodd;stroke:#ffffff;stroke-width:6;stroke-linecap:butt;stroke-linejoin:miter;stroke-opacity:1"
       d="m 1133.1866,849.95242 -35.8929,0"
       id="path3444-4-9"
       inkscape:connector-curvature="0" />
    <path
       style="fill:#0000ff;fill-rule:evenodd;stroke:#ffffff;stroke-width:6;stroke-linecap:butt;stroke-linejoin:miter;stroke-opacity:1"
       d="m 1049.1866,849.95242 -35.8929,0"
       id="path3444-5-5-9"
       inkscape:connector-curvature="0" />
    <path
       style="fill:#0000ff;fill-rule:evenodd;stroke:#ffffff;stroke-width:6;stroke-linecap:butt;stroke-linejoin:miter;stroke-opacity:1"
       d="m 969.18661,849.95242 -35.8929,0"
       id="path3444-5-2-4-8"
       inkscape:connector-curvature="0" />
    <path
       style="fill:#0000ff;fill-rule:evenodd;stroke:#ffffff;stroke-width:6;stroke-linecap:butt;stroke-linejoin:miter;stroke-opacity:1"
       d="m 859.18661,849.95242 -35.8929,0"
       id="path3444-5-5-5-9"
       inkscape:connector-curvature="0" />
    <path
       style="fill:#0000ff;fill-rule:evenodd;stroke:#ffffff;stroke-width:6;stroke-linecap:butt;stroke-linejoin:miter;stroke-opacity:1"
       d="m 791.1866,849.95242 -35.8929,0"
       id="path3444-5-2-4-1-5"
       inkscape:connector-curvature="0" />
    <path
       style="fill:#0000ff;fill-rule:evenodd;stroke:#ffffff;stroke-width:6;stroke-linecap:butt;stroke-linejoin:miter;stroke-opacity:1"
       d="m 861.23474,637.6891 -35.8929,0"
       id="path3444-5-5-5-4-0"
       inkscape:connector-curvature="0" />
    <path
       style="fill:#0000ff;fill-rule:evenodd;stroke:#ffffff;stroke-width:6;stroke-linecap:butt;stroke-linejoin:miter;stroke-opacity:1"
       d="m 793.23473,637.6891 -35.8929,0"
       id="path3444-5-2-4-1-7-0"
       inkscape:connector-curvature="0" />
    <path
       style="fill:#0000ff;fill-rule:evenodd;stroke:#ffffff;stroke-width:6;stroke-linecap:butt;stroke-linejoin:miter;stroke-opacity:1"
       d="m 1317.1688,637.2273 -35.8928,0"
       id="path3444-5-5-5-7-4"
       inkscape:connector-curvature="0" />
    <path
       style="fill:#0000ff;fill-rule:evenodd;stroke:#ffffff;stroke-width:6;stroke-linecap:butt;stroke-linejoin:miter;stroke-opacity:1"
       d="m 1249.1688,637.2273 -35.8929,0"
       id="path3444-5-2-4-1-9-9"
       inkscape:connector-curvature="0" />
    <path
       style="fill:#0000ff;fill-rule:evenodd;stroke:#ffffff;stroke-width:6;stroke-linecap:butt;stroke-linejoin:miter;stroke-opacity:1"
       d="m 1315.8276,849.57939 -35.8929,0"
       id="path3444-5-5-5-3-9"
       inkscape:connector-curvature="0" />
    <path
       style="fill:#0000ff;fill-rule:evenodd;stroke:#ffffff;stroke-width:6;stroke-linecap:butt;stroke-linejoin:miter;stroke-opacity:1"
       d="m 1247.8276,849.57939 -35.8929,0"
       id="path3444-5-2-4-1-0-0"
       inkscape:connector-curvature="0" />
  </g>
</svg>
